<svg width="391" height="106" viewBox="0 0 391 106" fill="none" xmlns="http://www.w3.org/2000/svg">
<path d="M142.513 50.2827V17.9183H147.322V45.4743H161.261V50.2827H142.513ZM166.353 50.2827V17.9183H186.442V22.7268H171.161V30.5404H183.46V35.3489H171.161V45.4743H186.442V50.2827H166.353ZM206.28 50.8838C204.03 50.8838 201.934 50.4522 199.992 49.5892C198.065 48.7107 196.378 47.5009 194.929 45.9598C193.496 44.4032 192.371 42.6077 191.554 40.5734C190.752 38.5391 190.352 36.3737 190.352 34.0774C190.352 31.6578 190.783 29.4308 191.646 27.3965C192.509 25.3621 193.688 23.5975 195.183 22.1026C196.678 20.5922 198.381 19.421 200.292 18.5887C202.219 17.7565 204.238 17.3404 206.349 17.3404C208.738 17.3404 211.034 17.8952 213.238 19.0048C215.442 20.1145 217.361 21.7789 218.994 23.9982L214.694 26.3331C213.585 24.946 212.29 23.898 210.811 23.1891C209.347 22.4802 207.844 22.1257 206.303 22.1257C204.808 22.1257 203.39 22.4339 202.049 23.0504C200.708 23.6514 199.522 24.4991 198.489 25.5933C197.456 26.6721 196.64 27.9436 196.039 29.4077C195.453 30.8564 195.16 32.4361 195.16 34.1468C195.16 35.7958 195.445 37.3447 196.015 38.7934C196.601 40.242 197.403 41.5135 198.42 42.6077C199.452 43.6865 200.639 44.5342 201.98 45.1506C203.336 45.7671 204.785 46.0753 206.326 46.0753C207.466 46.0753 208.561 45.8904 209.609 45.5205C210.657 45.1506 211.627 44.6267 212.521 43.9485C213.431 43.255 214.224 42.4305 214.902 41.475C215.581 40.5195 216.12 39.4561 216.521 38.2848H209.655V34.0312H222.161C222.192 36.3429 221.791 38.5159 220.959 40.5503C220.142 42.5846 219.002 44.3801 217.538 45.9366C216.089 47.4778 214.402 48.6876 212.475 49.5661C210.549 50.4445 208.483 50.8838 206.28 50.8838ZM235.35 17.9183H240.967L252.734 50.2827H247.648L245.406 44.1335H230.911L228.692 50.2827H223.583L235.35 17.9183ZM232.691 39.3251H243.626L238.147 24.2987L232.691 39.3251ZM270.1 50.8838C267.912 50.8838 265.854 50.4522 263.928 49.5892C262.001 48.7107 260.306 47.5086 258.842 45.9829C257.393 44.4417 256.253 42.654 255.421 40.6196C254.604 38.5853 254.196 36.4123 254.196 34.1005C254.196 31.7888 254.604 29.6157 255.421 27.5814C256.253 25.5471 257.393 23.767 258.842 22.2413C260.306 20.7001 262.001 19.498 263.928 18.635C265.854 17.7565 267.912 17.3173 270.1 17.3173C272.72 17.3173 275.132 17.926 277.336 19.1436C279.54 20.3611 281.366 21.9793 282.815 23.9982L278.538 26.2868C277.536 25.0231 276.296 24.0136 274.816 23.2585C273.337 22.5033 271.765 22.1257 270.1 22.1257C268.559 22.1257 267.118 22.4416 265.777 23.0735C264.437 23.7054 263.258 24.5684 262.24 25.6627C261.223 26.7569 260.43 28.0283 259.859 29.477C259.289 30.9257 259.004 32.4669 259.004 34.1005C259.004 35.7496 259.289 37.2984 259.859 38.7471C260.43 40.1804 261.223 41.4519 262.24 42.5615C263.273 43.6557 264.46 44.5188 265.8 45.1506C267.141 45.7671 268.575 46.0753 270.1 46.0753C271.796 46.0753 273.375 45.6978 274.839 44.9426C276.319 44.172 277.552 43.1548 278.538 41.8911L282.815 44.226C281.366 46.2449 279.54 47.8631 277.336 49.0806C275.132 50.2827 272.72 50.8838 270.1 50.8838ZM306.877 17.9183H312.541L301.49 35.6725V50.2827H296.682V35.6725L285.655 17.9183H291.319L299.086 30.4249L306.877 17.9183Z" fill="#202020"/>
<path d="M142.513 96.6519V64.2875H163.134V71.2227H149.448V75.8462H159.99V82.7814H149.448V89.7166H163.134V96.6519H142.513ZM168.204 96.6519V64.2875H178.931C181.165 64.2875 183.254 64.7113 185.195 65.5589C187.153 66.3912 188.871 67.5547 190.351 69.0497C191.846 70.5292 193.009 72.2476 193.841 74.2048C194.689 76.1467 195.113 78.235 195.113 80.4697C195.113 82.7043 194.689 84.8003 193.841 86.7576C193.009 88.6995 191.846 90.4179 190.351 91.9128C188.871 93.3923 187.153 94.5559 185.195 95.4035C183.254 96.2357 181.165 96.6519 178.931 96.6519H168.204ZM175.139 89.7166H178.931C180.179 89.7166 181.358 89.4778 182.468 89C183.577 88.5222 184.564 87.8595 185.427 87.0119C186.29 86.1643 186.96 85.1856 187.438 84.076C187.931 82.9509 188.178 81.7488 188.178 80.4697C188.178 79.1905 187.931 77.9961 187.438 76.8865C186.96 75.7768 186.29 74.7982 185.427 73.9506C184.579 73.0875 183.6 72.4171 182.491 71.9393C181.381 71.4616 180.194 71.2227 178.931 71.2227H175.139V89.7166ZM211.948 97.2529C209.359 97.2529 207.071 96.621 205.083 95.3573C203.11 94.0935 201.561 92.3983 200.436 90.2714C199.326 88.1292 198.772 85.7558 198.772 83.1513V64.2875H205.707V83.1513C205.707 84.4613 205.953 85.6634 206.446 86.7576C206.94 87.8364 207.649 88.6995 208.573 89.3468C209.513 89.994 210.638 90.3177 211.948 90.3177C213.274 90.3177 214.399 90.0017 215.324 89.3699C216.248 88.7226 216.949 87.8595 217.427 86.7807C217.905 85.6865 218.144 84.4767 218.144 83.1513V64.2875H225.079V83.1513C225.079 85.1086 224.763 86.9425 224.131 88.6532C223.499 90.3485 222.598 91.8434 221.427 93.138C220.255 94.4326 218.868 95.442 217.265 96.1664C215.663 96.8907 213.89 97.2529 211.948 97.2529ZM245.628 97.2529C243.44 97.2529 241.382 96.8214 239.456 95.9583C237.53 95.0799 235.834 93.8701 234.37 92.3289C232.921 90.7877 231.781 89.0077 230.949 86.9888C230.132 84.9544 229.724 82.7814 229.724 80.4697C229.724 78.1425 230.132 75.9695 230.949 73.9506C231.781 71.9162 232.921 70.1362 234.37 68.6104C235.834 67.0693 237.53 65.8672 239.456 65.0041C241.382 64.1256 243.44 63.6864 245.628 63.6864C248.248 63.6864 250.66 64.2952 252.864 65.5127C255.068 66.7148 256.894 68.3253 258.343 70.3442L252.147 73.6731C251.346 72.7484 250.383 72.0087 249.258 71.4539C248.133 70.8991 246.923 70.6216 245.628 70.6216C244.395 70.6216 243.232 70.8759 242.138 71.3845C241.059 71.8931 240.103 72.602 239.271 73.5113C238.454 74.4052 237.815 75.4455 237.352 76.6322C236.89 77.8189 236.659 79.098 236.659 80.4697C236.659 81.8259 236.89 83.0973 237.352 84.284C237.815 85.4707 238.454 86.5187 239.271 87.428C240.103 88.3219 241.059 89.0308 242.138 89.5548C243.232 90.0634 244.395 90.3177 245.628 90.3177C246.923 90.3177 248.133 90.0403 249.258 89.4855C250.383 88.9152 251.346 88.1601 252.147 87.2199L258.343 90.5951C256.894 92.5986 255.068 94.2091 252.864 95.4266C250.66 96.6441 248.248 97.2529 245.628 97.2529ZM272.396 64.2875H280.209L291.953 96.6519H284.602L282.752 91.566H269.853L268.003 96.6519H260.652L272.396 64.2875ZM272.396 84.6308H280.209L276.28 73.9043L272.396 84.6308ZM308.795 97.2529C306.606 97.2529 304.549 96.8214 302.623 95.9583C300.696 95.0799 299.001 93.8701 297.537 92.3289C296.088 90.7877 294.948 89.0077 294.115 86.9888C293.298 84.9544 292.89 82.7814 292.89 80.4697C292.89 78.1425 293.298 75.9695 294.115 73.9506C294.948 71.9162 296.088 70.1362 297.537 68.6104C299.001 67.0693 300.696 65.8672 302.623 65.0041C304.549 64.1256 306.606 63.6864 308.795 63.6864C311.415 63.6864 313.827 64.2952 316.031 65.5127C318.234 66.7148 320.061 68.3253 321.509 70.3442L315.314 73.6731C314.513 72.7484 313.549 72.0087 312.424 71.4539C311.299 70.8991 310.089 70.6216 308.795 70.6216C307.562 70.6216 306.398 70.8759 305.304 71.3845C304.225 71.8931 303.27 72.602 302.438 73.5113C301.621 74.4052 300.981 75.4455 300.519 76.6322C300.056 77.8189 299.825 79.098 299.825 80.4697C299.825 81.8259 300.056 83.0973 300.519 84.284C300.981 85.4707 301.621 86.5187 302.438 87.428C303.27 88.3219 304.225 89.0308 305.304 89.5548C306.398 90.0634 307.562 90.3177 308.795 90.3177C310.089 90.3177 311.299 90.0403 312.424 89.4855C313.549 88.9152 314.513 88.1601 315.314 87.2199L321.509 90.5951C320.061 92.5986 318.234 94.2091 316.031 95.4266C313.827 96.6441 311.415 97.2529 308.795 97.2529ZM309.049 105.46C307.878 105.768 306.768 105.621 305.72 105.02C304.672 104.419 303.994 103.541 303.686 102.385L307.038 101.483C307.1 101.715 307.238 101.892 307.454 102.015C307.67 102.138 307.901 102.169 308.148 102.108C308.394 102.046 308.579 101.907 308.702 101.691C308.826 101.476 308.857 101.245 308.795 100.998C308.733 100.751 308.595 100.582 308.379 100.489C308.178 100.397 307.947 100.351 307.685 100.351H304.31L307.778 94.2245L310.806 95.9815L309.974 97.3916C310.498 97.6536 310.952 98.0158 311.338 98.4781C311.723 98.9405 311.993 99.4876 312.147 100.119C312.455 101.275 312.309 102.377 311.708 103.425C311.107 104.473 310.22 105.151 309.049 105.46ZM335.562 64.2875H343.376L355.12 96.6519H347.768L345.919 91.566H333.019L331.17 96.6519H323.819L335.562 64.2875ZM335.562 84.6308H343.376L339.446 73.9043L335.562 84.6308ZM343.075 62.1838C342.49 62.1838 341.781 61.9757 340.949 61.5596C340.132 61.1281 339.315 60.6657 338.498 60.1726C337.697 59.664 337.011 59.271 336.441 58.9936C335.871 58.7008 335.539 58.6853 335.447 58.9473C335.354 59.2248 335.331 59.4945 335.377 59.7565C335.439 60.0185 335.539 60.3806 335.678 60.843L331.794 61.9064C331.316 60.5347 331.17 59.3018 331.355 58.2076C331.555 57.1134 332.041 56.2503 332.811 55.6184C333.582 54.9712 334.599 54.6475 335.863 54.6475C336.418 54.6475 337.073 54.817 337.828 55.1561C338.583 55.4797 339.33 55.8573 340.07 56.2888C340.825 56.7204 341.48 57.1057 342.035 57.4447C342.605 57.7684 342.968 57.9302 343.122 57.9302C343.415 57.9302 343.576 57.8377 343.607 57.6528C343.653 57.4678 343.623 57.2367 343.515 56.9592C343.422 56.6664 343.322 56.3736 343.214 56.0808L347.19 54.7862C347.668 56.2349 347.791 57.5141 347.56 58.6237C347.329 59.7333 346.82 60.6041 346.034 61.236C345.249 61.8678 344.262 62.1838 343.075 62.1838ZM372.008 97.2529C369.819 97.2529 367.762 96.8214 365.835 95.9583C363.909 95.0799 362.214 93.8701 360.749 92.3289C359.285 90.7877 358.137 89.0077 357.305 86.9888C356.473 84.9544 356.057 82.7814 356.057 80.4697C356.057 78.1579 356.473 75.9926 357.305 73.9737C358.137 71.9393 359.285 70.1516 360.749 68.6104C362.214 67.0693 363.909 65.8672 365.835 65.0041C367.762 64.1256 369.819 63.6864 372.008 63.6864C374.212 63.6864 376.277 64.1256 378.203 65.0041C380.13 65.8672 381.825 67.0693 383.289 68.6104C384.753 70.1516 385.894 71.9393 386.71 73.9737C387.543 75.9926 387.959 78.1579 387.959 80.4697C387.959 82.7814 387.543 84.9544 386.71 86.9888C385.894 89.0077 384.753 90.7877 383.289 92.3289C381.825 93.8701 380.13 95.0799 378.203 95.9583C376.277 96.8214 374.212 97.2529 372.008 97.2529ZM372.008 90.3177C373.241 90.3177 374.396 90.0634 375.475 89.5548C376.569 89.0308 377.533 88.3219 378.365 87.428C379.197 86.5187 379.844 85.4707 380.307 84.284C380.785 83.0973 381.023 81.8259 381.023 80.4697C381.023 79.1134 380.785 77.842 380.307 76.6553C379.844 75.4686 379.197 74.4283 378.365 73.5344C377.533 72.6252 376.569 71.9162 375.475 71.4076C374.396 70.8836 373.241 70.6216 372.008 70.6216C370.775 70.6216 369.611 70.8836 368.517 71.4076C367.438 71.9162 366.483 72.6252 365.65 73.5344C364.818 74.4283 364.163 75.4686 363.685 76.6553C363.223 77.842 362.992 79.1134 362.992 80.4697C362.992 81.8259 363.223 83.0973 363.685 84.284C364.163 85.4707 364.818 86.5187 365.65 87.428C366.483 88.3219 367.438 89.0308 368.517 89.5548C369.611 90.0634 370.775 90.3177 372.008 90.3177Z" fill="#202020"/>
<path d="M126.386 98.3353H58.0157L64.1381 87.7127H107.36L88.3103 54.7107L85.7491 50.2958L81.8953 43.6124L81.1513 42.3075L63.1624 11.1592L69.614 0L92.2008 39.1243L94.7863 43.6124L120.263 87.7127L126.386 98.3353Z" fill="url(#paint0_linear_632_3302)"/>
<path d="M31.3556 66.248L18.9646 87.7127H54.9302L48.7957 98.3353H0L56.7474 0.0487835L63.1624 11.1592L38.0145 54.7107H73.9801L67.3212 66.248H31.3556Z" fill="url(#paint1_linear_632_3302)"/>
<defs>
<linearGradient id="paint0_linear_632_3302" x1="3.77419e-06" y1="97.3966" x2="103.375" y2="102.904" gradientUnits="userSpaceOnUse">
<stop stop-color="#1C427B"/>
<stop offset="1" stop-color="#245195"/>
</linearGradient>
<linearGradient id="paint1_linear_632_3302" x1="3.77419e-06" y1="97.3966" x2="103.375" y2="102.904" gradientUnits="userSpaceOnUse">
<stop stop-color="#1C427B"/>
<stop offset="1" stop-color="#245195"/>
</linearGradient>
</defs>
</svg>
